<svg width="30" height="30" viewBox="0 0 30 30" fill="none" xmlns="http://www.w3.org/2000/svg">
<path d="M17.2675 5.05676L14.8008 7.40014" stroke="#745657" stroke-width="2.46672" stroke-linecap="round" stroke-linejoin="round"/>
<path d="M6.28963 9.86681L2.71289 8.88013" stroke="#745657" stroke-width="2.46672" stroke-linecap="round" stroke-linejoin="round"/>
<path d="M7.40002 14.8003L5.05664 17.267" stroke="#745657" stroke-width="2.46672" stroke-linecap="round" stroke-linejoin="round"/>
<path d="M8.87891 2.71338L9.86559 6.29012" stroke="#745657" stroke-width="2.46672" stroke-linecap="round" stroke-linejoin="round"/>
<path d="M11.1465 11.9513C11.0987 11.8386 11.0856 11.7142 11.1089 11.5941C11.1323 11.4739 11.191 11.3635 11.2776 11.2769C11.3641 11.1904 11.4745 11.1317 11.5947 11.1083C11.7148 11.085 11.8392 11.0981 11.9519 11.1459L25.5188 16.696C25.6396 16.7455 25.7415 16.8321 25.8099 16.9432C25.8783 17.0544 25.9097 17.1843 25.8996 17.3145C25.8894 17.4446 25.8383 17.5681 25.7534 17.6673C25.6686 17.7665 25.5545 17.8362 25.4275 17.8664L20.0637 19.1504C19.8422 19.2033 19.6398 19.3164 19.4787 19.4773C19.3176 19.6381 19.2042 19.8405 19.151 20.0618L17.8683 25.4269C17.8384 25.5543 17.7688 25.6689 17.6694 25.7541C17.5701 25.8393 17.4463 25.8907 17.3158 25.9009C17.1853 25.911 17.055 25.8794 16.9437 25.8106C16.8324 25.7418 16.7459 25.6394 16.6966 25.5182L11.1465 11.9513Z" stroke="#745657" stroke-width="2.46672" stroke-linecap="round" stroke-linejoin="round"/>
</svg>
