<svg width="24" height="24" viewBox="0 0 24 24" fill="none" xmlns="http://www.w3.org/2000/svg">
<path d="M12 13C12.5523 13 13 12.5523 13 12C13 11.4477 12.5523 11 12 11C11.4477 11 11 11.4477 11 12C11 12.5523 11.4477 13 12 13Z" stroke="#745657" stroke-width="2" stroke-linecap="round" stroke-linejoin="round"/>
<path d="M20.1994 20.2C22.2394 18.17 20.2194 12.84 15.6994 8.30001C11.1594 3.78001 5.8294 1.76001 3.7994 3.80001C1.7594 5.83001 3.7794 11.16 8.2994 15.7C12.8394 20.22 18.1694 22.24 20.1994 20.2Z" stroke="#745657" stroke-width="2" stroke-linecap="round" stroke-linejoin="round"/>
<path d="M15.6994 15.7C20.2194 11.16 22.2394 5.83001 20.1994 3.80001C18.1694 1.76001 12.8394 3.78001 8.2994 8.30001C3.7794 12.84 1.7594 18.17 3.7994 20.2C5.8294 22.24 11.1594 20.22 15.6994 15.7Z" stroke="#745657" stroke-width="2" stroke-linecap="round" stroke-linejoin="round"/>
</svg>
