<svg width="1666" height="738" viewBox="0 0 1666 738" fill="none" xmlns="http://www.w3.org/2000/svg">
<path d="M1015.09 503H909.498V106.336H963.69L951.957 457.188L1015.09 467.244V503ZM1097.03 503C1081.76 503 1071.15 500.579 1065.19 495.737C1059.23 490.895 1056.25 482.887 1056.25 471.714V119.744C1064.44 115.275 1075.06 111.923 1088.09 109.688C1101.5 107.453 1119.19 106.336 1141.17 106.336C1151.22 106.336 1159.42 108.943 1165.75 114.157C1172.08 118.999 1175.25 125.331 1175.25 133.152L1171.34 503H1097.03ZM1131.67 471.155L1136.7 466.127L1140.05 147.12C1140.05 145.257 1138.37 144.14 1135.02 143.767L1100.38 142.091L1095.36 145.443L1092 467.803L1131.67 471.155ZM1337 299.64C1344.45 301.502 1351.9 306.53 1359.35 314.724C1367.17 322.918 1371.08 333.161 1371.08 345.452L1359.9 486.24C1359.9 492.944 1353.57 497.413 1340.91 499.648C1328.62 501.883 1317.26 503 1306.83 503H1230.85V106.336H1305.15C1318.19 106.336 1330.48 109.502 1342.03 115.833C1353.95 122.165 1359.9 130.545 1359.9 140.974V253.269L1337 299.64ZM1266.05 276.734C1266.05 279.713 1268.28 281.203 1272.75 281.203H1312.98C1314.09 281.203 1315.4 280.458 1316.89 278.969C1317.26 278.596 1317.63 277.665 1318 276.175L1323.03 142.65C1323.03 141.16 1320.42 140.415 1315.21 140.415L1266.05 142.65V276.734ZM1278.9 471.714C1309.44 460.54 1324.71 450.484 1324.71 441.545C1324.71 439.31 1324.33 438.193 1323.59 438.193V323.663C1324.71 322.918 1325.27 322.359 1325.27 321.987C1325.27 320.87 1323.96 320.311 1321.36 320.311L1278.9 314.724C1277.78 314.724 1276.47 315.097 1274.98 315.842C1273.87 316.586 1273.12 317.331 1272.75 318.076V470.038L1278.9 471.714ZM1535.78 503H1503.37L1488.85 347.686H1460.35L1434.65 503H1408.4L1433.54 106.336H1535.78V503ZM1500.58 127.566C1500.58 125.331 1499.46 124.214 1497.23 124.214H1473.2C1470.97 124.214 1469.85 125.331 1469.85 127.566V318.635C1469.85 320.497 1470.97 321.428 1473.2 321.428H1497.23C1499.46 321.428 1500.58 320.311 1500.58 318.076V127.566Z" fill="#3D1520"/>
<path d="M929.811 665.655C923.651 665.655 918.992 663.923 915.835 660.457C912.678 656.915 911.1 651.872 911.1 645.327V640.707H923.112V646.251C923.112 651.487 925.306 654.105 929.695 654.105C931.851 654.105 933.468 653.489 934.546 652.257C935.701 650.948 936.279 648.869 936.279 646.02C936.279 642.632 935.509 639.667 933.969 637.126C932.429 634.508 929.58 631.39 925.422 627.771C920.186 623.151 916.528 618.993 914.449 615.297C912.37 611.524 911.331 607.289 911.331 602.592C911.331 596.201 912.948 591.273 916.182 587.808C919.416 584.266 924.113 582.495 930.273 582.495C936.356 582.495 940.937 584.266 944.017 587.808C947.174 591.273 948.753 596.278 948.753 602.823V606.173H936.741V602.014C936.741 599.242 936.202 597.24 935.124 596.008C934.046 594.699 932.467 594.045 930.388 594.045C926.153 594.045 924.036 596.624 924.036 601.783C924.036 604.709 924.806 607.443 926.346 609.984C927.963 612.525 930.85 615.605 935.008 619.224C940.321 623.844 943.979 628.04 945.981 631.813C947.983 635.586 948.984 640.014 948.984 645.096C948.984 651.718 947.328 656.8 944.017 660.342C940.783 663.884 936.048 665.655 929.811 665.655ZM1025.57 583.65H1038.27V616.567H1051.9V583.65H1064.61V664.5H1051.9V628.117H1038.27V664.5H1025.57V583.65ZM1153.19 583.65H1170.4L1183.56 664.5H1170.86L1168.55 648.445V648.676H1154.11L1151.8 664.5H1140.02L1153.19 583.65ZM1167.05 637.704L1161.39 597.741H1161.16L1155.61 637.704H1167.05ZM1259.03 583.65H1277.74C1284.05 583.65 1288.79 585.344 1291.94 588.732C1295.1 592.12 1296.68 597.086 1296.68 603.631V611.601C1296.68 618.146 1295.1 623.112 1291.94 626.5C1288.79 629.888 1284.05 631.582 1277.74 631.582H1271.73V664.5H1259.03V583.65ZM1277.74 620.032C1279.82 620.032 1281.36 619.455 1282.36 618.3C1283.44 617.145 1283.98 615.181 1283.98 612.409V602.823C1283.98 600.051 1283.44 598.087 1282.36 596.932C1281.36 595.777 1279.82 595.2 1277.74 595.2H1271.73V620.032H1277.74ZM1372.88 583.65H1407.53V595.2H1385.59V616.567H1403.03V628.117H1385.59V652.95H1407.53V664.5H1372.88V583.65ZM1500.88 665.655C1494.72 665.655 1490.06 663.923 1486.91 660.457C1483.75 656.915 1482.17 651.872 1482.17 645.327V640.707H1494.18V646.251C1494.18 651.487 1496.38 654.105 1500.77 654.105C1502.92 654.105 1504.54 653.489 1505.62 652.257C1506.77 650.948 1507.35 648.869 1507.35 646.02C1507.35 642.632 1506.58 639.667 1505.04 637.126C1503.5 634.508 1500.65 631.39 1496.49 627.771C1491.26 623.151 1487.6 618.993 1485.52 615.297C1483.44 611.524 1482.4 607.289 1482.4 602.592C1482.4 596.201 1484.02 591.273 1487.25 587.808C1490.49 584.266 1495.18 582.495 1501.34 582.495C1507.43 582.495 1512.01 584.266 1515.09 587.808C1518.24 591.273 1519.82 596.278 1519.82 602.823V606.173H1507.81V602.014C1507.81 599.242 1507.27 597.24 1506.19 596.008C1505.12 594.699 1503.54 594.045 1501.46 594.045C1497.22 594.045 1495.11 596.624 1495.11 601.783C1495.11 604.709 1495.88 607.443 1497.42 609.984C1499.03 612.525 1501.92 615.605 1506.08 619.224C1511.39 623.844 1515.05 628.04 1517.05 631.813C1519.05 635.586 1520.05 640.014 1520.05 645.096C1520.05 651.718 1518.4 656.8 1515.09 660.342C1511.85 663.884 1507.12 665.655 1500.88 665.655Z" fill="#3D1520"/>
<path d="M704.662 68.7223C713.055 67.8798 718.036 73.6049 723.443 78.9806C737.67 93.1298 731.527 107.19 727.362 124.117C725.742 130.711 725.25 137.869 725.034 144.886C727.841 142.363 730.686 139.852 733.414 137.251C737.412 133.443 738.349 131.508 738.466 126.136C739.907 127.012 741.702 127.898 743.214 128.694C745.938 127.003 747.242 126.001 749.407 123.688C750.557 119.051 750.478 117.367 750.182 112.532C756.23 116.461 762.752 122.97 765.343 129.838C769.508 141.216 761.782 148.621 756.65 157.526C749.128 170.58 734.359 188.084 733.539 203.356C732.81 216.951 744.676 227.837 753.377 236.577C743.814 234.451 735.371 231.945 727.499 225.895C735.475 251.629 762.032 265.611 768.908 290.343C762.419 287.363 750.499 281.851 744.576 278.546C756.759 294.234 760.087 320.357 758.433 339.744C758.241 341.999 758.025 349.023 755.926 349.831C755.08 348.879 754.072 347.357 753.364 346.241C748.458 338.481 742.935 331.419 737.216 324.229C746.1 348.126 743.089 390.642 734.213 414.494C733.618 416.091 733.205 417.828 731.785 418.471C731.36 418.068 729.311 410.235 728.924 408.899C727.179 402.875 724.638 397.892 721.881 392.288C722.939 403.83 717.216 426.671 710.144 435.731C700.347 448.285 700.268 450.59 695.274 465.485C675.216 525.302 670.388 592.653 694.929 651.966C698.64 660.941 703.346 668.971 708.219 677.317C706.387 677.521 704.254 677.546 702.409 677.542C686.836 677.512 671.075 677.841 655.527 677.512C654.953 674.901 653.008 669.483 652.058 666.734C649.026 658.047 645.81 649.426 642.416 640.876L626.364 598.242C613.735 564.513 605.043 542.203 606.846 505.758C624.739 490.606 637.639 482.148 656.981 469.7L657.014 469.221C655.719 469.042 652.837 470.583 651.421 471.137C640.133 475.568 628.892 478.129 616.959 480.199C609.804 486.821 597.163 511.192 593.285 520.388C576.708 559.707 570.436 606.172 582.648 647.394C584.418 653.337 586.583 659.15 589.128 664.802C591.048 669.046 593.273 673.144 594.964 677.467C577.495 677.687 560.023 677.696 542.555 677.496C541.255 668.504 537.169 655.065 534.979 645.815C526.345 609.354 511.538 563.163 511.979 525.915C512.021 514.632 513.649 503.413 516.807 492.581C517.869 488.816 519.826 482.281 521.542 478.825C516.894 477.684 511.53 476.959 506.752 475.959L472.566 468.555C453.694 464.586 435.701 460.227 416.504 456.673C401.644 488.424 382.529 507.782 355.118 528.563C342.026 537.971 328.235 545.451 313.753 552.448C308.6 554.938 303.292 557.329 298.315 560.14C281.784 569.635 268.103 583.391 258.698 599.971C248.294 618.674 240.859 643.762 243.605 665.314C244.14 669.516 245.259 673.456 246.422 677.512C230.742 677.866 213.796 677.571 198.018 677.583C199.22 654.136 206.784 625.346 212.453 602.115L228.919 533.944C238.948 531.191 253.011 523.595 261.235 517.29C287.101 497.474 300.473 470.112 305.294 438.35C306.229 432.193 306.567 426.781 307.351 420.705C305.897 424.306 301.115 431.943 298.875 435.495C280.529 464.831 256.928 490.257 228.06 509.16C170.398 546.921 93.9735 535.51 44.3408 489.757C38.4002 484.285 33.637 480.141 29.1533 473.136C38.1658 471.603 47.5941 470.779 56.7201 469.392C74.6069 466.518 92.4453 463.349 110.228 459.888C149.614 452.093 193.712 440.105 232.402 428.88C277.5 415.531 321.913 399.968 365.479 382.247C429.399 356.788 492.208 328.696 549.856 290.749C572.706 275.708 588.908 266.535 602.365 242.091C589.049 247.645 571.939 256.133 557.803 258.505C560.864 251.922 572.81 236.69 578.008 230.872C573.801 230.701 569.603 230.36 565.425 229.852C562.018 229.442 544.696 226.152 545.654 221.552C549.61 218.614 557.382 214.206 561.91 211.35L602.219 186.261C604.931 180.494 607.975 174.888 611.332 169.471C616.293 161.638 635.16 137.346 642.224 135.606C664.611 130.092 659.497 129.042 672.642 110.773C677.74 103.688 698.011 72.5535 704.662 68.7223ZM649.43 170.258C651.212 169.384 653.128 168.518 654.611 167.176C661.533 160.909 659.767 152.799 649.626 152.594C647.214 153.78 645.152 154.703 643.649 156.994C638.217 165.245 637.534 171.788 649.43 170.258Z" fill="#3D1520"/>
<path d="M426.35 481.727C430.732 481.678 442.569 485.047 447.721 486.155C464.29 489.715 480.904 493.072 497.556 496.229C489.243 522.953 466.735 541.844 442.486 554.326C420.407 565.691 394.991 572.555 379.592 593.711C366.904 611.144 361.702 634.371 364.921 655.519C365.459 662.278 369.015 671.132 371.543 677.408C356.406 678.033 338.108 677.658 322.86 677.487C319.591 636.861 325.299 599.996 330.32 560.086C345.443 554.501 352.869 551.373 366.631 543.006C393.188 526.86 411.651 509.21 426.35 481.727Z" fill="#3D1520"/>
</svg>
