<svg width="24" height="24" viewBox="0 0 24 24" fill="none" xmlns="http://www.w3.org/2000/svg">
<path d="M10.1699 4.19297C10.3269 3.83687 10.5843 3.53429 10.9106 3.3223C11.2369 3.11032 11.618 2.99814 12.0072 2.99952C12.3963 3.0009 12.7766 3.11578 13.1014 3.33007C13.4263 3.54437 13.6815 3.84877 13.8359 4.20597" stroke="#745657" stroke-width="2" stroke-linecap="round" stroke-linejoin="round"/>
<path d="M14 21H16" stroke="#745657" stroke-width="2" stroke-linecap="round" stroke-linejoin="round"/>
<path d="M15.873 7.74304L16.873 9.47504" stroke="#745657" stroke-width="2" stroke-linecap="round" stroke-linejoin="round"/>
<path d="M18.8496 12.952L19.8496 14.684" stroke="#745657" stroke-width="2" stroke-linecap="round" stroke-linejoin="round"/>
<path d="M21.8233 18.1801C21.9615 18.4856 22.0206 18.8211 21.9952 19.1555C21.9698 19.4899 21.8607 19.8126 21.678 20.0938C21.4952 20.375 21.2447 20.6058 20.9494 20.7649C20.6542 20.9239 20.3237 21.0062 19.9883 21.0041" stroke="#745657" stroke-width="2" stroke-linecap="round" stroke-linejoin="round"/>
<path d="M4.02355 21C3.68587 21.004 3.35267 20.9224 3.05503 20.7628C2.75739 20.6033 2.505 20.3709 2.3214 20.0875C2.1378 19.804 2.02896 19.4787 2.00503 19.1419C1.9811 18.805 2.04286 18.4676 2.18455 18.161" stroke="#745657" stroke-width="2" stroke-linecap="round" stroke-linejoin="round"/>
<path d="M5.13672 12.952L4.13672 14.684" stroke="#745657" stroke-width="2" stroke-linecap="round" stroke-linejoin="round"/>
<path d="M8 21H10" stroke="#745657" stroke-width="2" stroke-linecap="round" stroke-linejoin="round"/>
<path d="M8.10156 7.74304L7.10156 9.47504" stroke="#745657" stroke-width="2" stroke-linecap="round" stroke-linejoin="round"/>
</svg>
